<mxfile host="app.diagrams.net" modified="2023-05-12T18:30:48.479Z" agent="Mozilla/5.0 (Macintosh; Intel Mac OS X 10_15_7) AppleWebKit/605.1.15 (KHTML, like Gecko) Version/15.6.1 Safari/605.1.15" etag="9VjqemeLyloMg_SVhCgQ" version="21.2.9" type="device">
  <diagram name="Page-1" id="19d8dcba-68ad-dc05-1034-9cf7b2a963f6">
    <mxGraphModel dx="3371" dy="1380" grid="1" gridSize="10" guides="1" tooltips="1" connect="1" arrows="1" fold="1" page="1" pageScale="1" pageWidth="1100" pageHeight="850" background="none" math="0" shadow="0">
      <root>
        <mxCell id="0" />
        <mxCell id="1" parent="0" />
        <mxCell id="Gb6LevgNshtwQaWvTbLj-17" value="" style="rounded=1;whiteSpace=wrap;html=1;dashed=1;dashPattern=12 12;fillColor=none;" parent="1" vertex="1">
          <mxGeometry x="430" y="642" width="335" height="343" as="geometry" />
        </mxCell>
        <mxCell id="Gb6LevgNshtwQaWvTbLj-15" value="" style="rounded=1;whiteSpace=wrap;html=1;dashed=1;dashPattern=12 12;fillColor=none;" parent="1" vertex="1">
          <mxGeometry x="97" y="645" width="322" height="340" as="geometry" />
        </mxCell>
        <mxCell id="Gb6LevgNshtwQaWvTbLj-19" value="" style="rounded=1;whiteSpace=wrap;html=1;dashed=1;dashPattern=12 12;fillColor=none;" parent="1" vertex="1">
          <mxGeometry x="167.5" y="280" width="317.5" height="288" as="geometry" />
        </mxCell>
        <mxCell id="Gb6LevgNshtwQaWvTbLj-21" value="" style="rounded=1;whiteSpace=wrap;html=1;dashed=1;dashPattern=12 12;fillColor=none;" parent="1" vertex="1">
          <mxGeometry x="514" y="282" width="363" height="247" as="geometry" />
        </mxCell>
        <mxCell id="Gb6LevgNshtwQaWvTbLj-23" value="" style="rounded=1;whiteSpace=wrap;html=1;dashed=1;dashPattern=12 12;fillColor=none;" parent="1" vertex="1">
          <mxGeometry x="898.5" y="282" width="228" height="247" as="geometry" />
        </mxCell>
        <mxCell id="Gb6LevgNshtwQaWvTbLj-24" value="Abdomen" style="text;html=1;align=center;verticalAlign=middle;resizable=0;points=[];autosize=1;strokeColor=none;fillColor=none;" parent="1" vertex="1">
          <mxGeometry x="914" y="290" width="69" height="26" as="geometry" />
        </mxCell>
        <mxCell id="Gb6LevgNshtwQaWvTbLj-25" value="" style="rounded=1;whiteSpace=wrap;html=1;dashed=1;dashPattern=12 12;fillColor=none;" parent="1" vertex="1">
          <mxGeometry x="1145" y="289" width="167" height="177" as="geometry" />
        </mxCell>
        <mxCell id="Gb6LevgNshtwQaWvTbLj-27" value="" style="rounded=1;whiteSpace=wrap;html=1;dashed=1;dashPattern=12 12;fillColor=none;" parent="1" vertex="1">
          <mxGeometry x="1075" y="587" width="173" height="257" as="geometry" />
        </mxCell>
        <mxCell id="Gb6LevgNshtwQaWvTbLj-29" value="" style="rounded=1;whiteSpace=wrap;html=1;dashed=1;dashPattern=12 12;fillColor=none;" parent="1" vertex="1">
          <mxGeometry x="1305" y="598.5" width="253" height="240.5" as="geometry" />
        </mxCell>
        <mxCell id="Gb6LevgNshtwQaWvTbLj-31" value="" style="rounded=1;whiteSpace=wrap;html=1;dashed=1;dashPattern=12 12;fillColor=none;" parent="1" vertex="1">
          <mxGeometry x="1574" y="594" width="244" height="250" as="geometry" />
        </mxCell>
        <mxCell id="Gb6LevgNshtwQaWvTbLj-34" value="" style="rounded=1;whiteSpace=wrap;html=1;dashed=1;dashPattern=12 12;fillColor=none;" parent="1" vertex="1">
          <mxGeometry x="1890" y="578" width="220" height="196" as="geometry" />
        </mxCell>
        <mxCell id="Gb6LevgNshtwQaWvTbLj-38" value="" style="rounded=1;whiteSpace=wrap;html=1;dashed=1;dashPattern=12 12;fillColor=none;" parent="1" vertex="1">
          <mxGeometry x="2535" y="522" width="323" height="263" as="geometry" />
        </mxCell>
        <mxCell id="Gb6LevgNshtwQaWvTbLj-36" value="" style="rounded=1;whiteSpace=wrap;html=1;dashed=1;dashPattern=12 12;fillColor=none;" parent="1" vertex="1">
          <mxGeometry x="2149" y="587" width="345" height="238" as="geometry" />
        </mxCell>
        <mxCell id="Gb6LevgNshtwQaWvTbLj-9" value="" style="rounded=1;whiteSpace=wrap;html=1;dashed=1;dashPattern=12 12;fillColor=none;" parent="1" vertex="1">
          <mxGeometry x="-666" y="813.5" width="221" height="266" as="geometry" />
        </mxCell>
        <mxCell id="Gb6LevgNshtwQaWvTbLj-13" value="" style="rounded=1;whiteSpace=wrap;html=1;dashed=1;dashPattern=12 12;fillColor=none;" parent="1" vertex="1">
          <mxGeometry x="-160" y="645" width="246" height="254" as="geometry" />
        </mxCell>
        <mxCell id="Gb6LevgNshtwQaWvTbLj-11" value="" style="rounded=1;whiteSpace=wrap;html=1;dashed=1;dashPattern=12 12;fillColor=none;" parent="1" vertex="1">
          <mxGeometry x="-395.25" y="653" width="220.5" height="243" as="geometry" />
        </mxCell>
        <mxCell id="6257edae8c83ed4a-1" value="Robot" style="whiteSpace=wrap;html=1;rounded=1;shadow=0;comic=0;strokeWidth=2;fontFamily=Verdana;align=center;fontSize=12;fontStyle=1;fillColor=none;" parent="1" vertex="1">
          <mxGeometry x="1200" y="86" width="139" height="47" as="geometry" />
        </mxCell>
        <mxCell id="RN-i4offdI5VvVCZViMp-4" value="" style="ellipse;whiteSpace=wrap;html=1;aspect=fixed;fillColor=#000000;" parent="1" vertex="1">
          <mxGeometry x="1254.5" y="170" width="30" height="30" as="geometry" />
        </mxCell>
        <mxCell id="RN-i4offdI5VvVCZViMp-5" value="" style="endArrow=none;html=1;rounded=0;strokeWidth=2;" parent="1" source="RN-i4offdI5VvVCZViMp-4" target="6257edae8c83ed4a-1" edge="1">
          <mxGeometry width="50" height="50" relative="1" as="geometry">
            <mxPoint x="1148" y="434" as="sourcePoint" />
            <mxPoint x="1269.5" y="223.0000000000001" as="targetPoint" />
          </mxGeometry>
        </mxCell>
        <mxCell id="RN-i4offdI5VvVCZViMp-8" value="S (c&lt;sub&gt;torso&lt;/sub&gt;, c&lt;sub&gt;torso&lt;/sub&gt;, l&lt;sub&gt;torso&lt;/sub&gt;)" style="ellipse;whiteSpace=wrap;html=1;fillColor=none;align=center;" parent="1" vertex="1">
          <mxGeometry x="1157" y="327" width="148" height="52" as="geometry" />
        </mxCell>
        <mxCell id="RN-i4offdI5VvVCZViMp-10" value="Cubo" style="whiteSpace=wrap;html=1;rounded=1;shadow=0;comic=0;strokeWidth=2;fontFamily=Verdana;align=center;fontSize=12;fontStyle=1;fillColor=none;" parent="1" vertex="1">
          <mxGeometry x="1161.5" y="402.5" width="139" height="47" as="geometry" />
        </mxCell>
        <mxCell id="RN-i4offdI5VvVCZViMp-11" value="" style="endArrow=none;html=1;rounded=0;strokeWidth=2;" parent="1" source="RN-i4offdI5VvVCZViMp-8" target="RN-i4offdI5VvVCZViMp-4" edge="1">
          <mxGeometry width="50" height="50" relative="1" as="geometry">
            <mxPoint x="1188" y="426" as="sourcePoint" />
            <mxPoint x="1238" y="376" as="targetPoint" />
          </mxGeometry>
        </mxCell>
        <mxCell id="RN-i4offdI5VvVCZViMp-13" value="" style="endArrow=none;html=1;rounded=0;strokeWidth=2;" parent="1" source="RN-i4offdI5VvVCZViMp-10" target="RN-i4offdI5VvVCZViMp-8" edge="1">
          <mxGeometry width="50" height="50" relative="1" as="geometry">
            <mxPoint x="1265.5" y="439" as="sourcePoint" />
            <mxPoint x="1315.5" y="389" as="targetPoint" />
          </mxGeometry>
        </mxCell>
        <mxCell id="RN-i4offdI5VvVCZViMp-14" value="&lt;font style=&quot;&quot;&gt;T (0, l&lt;sub style=&quot;&quot;&gt;&lt;font style=&quot;font-size: 10px;&quot;&gt;cabeça&lt;/font&gt;&lt;/sub&gt;/2, 0)&lt;/font&gt;" style="ellipse;whiteSpace=wrap;html=1;fillColor=none;align=center;" parent="1" vertex="1">
          <mxGeometry x="1083" y="627" width="159" height="52" as="geometry" />
        </mxCell>
        <mxCell id="RN-i4offdI5VvVCZViMp-15" value="Cubo" style="whiteSpace=wrap;html=1;rounded=1;shadow=0;comic=0;strokeWidth=2;fontFamily=Verdana;align=center;fontSize=12;fontStyle=1;fillColor=none;" parent="1" vertex="1">
          <mxGeometry x="1093" y="782" width="139" height="47" as="geometry" />
        </mxCell>
        <mxCell id="RN-i4offdI5VvVCZViMp-16" value="S (l&lt;sub style=&quot;&quot;&gt;&lt;font style=&quot;font-size: 10px;&quot;&gt;cabeça&lt;/font&gt;&lt;/sub&gt;, l&lt;sub&gt;cabeça&lt;/sub&gt;, l&lt;sub&gt;cabeça&lt;/sub&gt;)" style="ellipse;whiteSpace=wrap;html=1;fillColor=none;align=center;" parent="1" vertex="1">
          <mxGeometry x="1088.5" y="702" width="148" height="52" as="geometry" />
        </mxCell>
        <mxCell id="RN-i4offdI5VvVCZViMp-17" value="" style="endArrow=none;html=1;rounded=0;strokeWidth=2;" parent="1" source="RN-i4offdI5VvVCZViMp-15" target="RN-i4offdI5VvVCZViMp-16" edge="1">
          <mxGeometry width="50" height="50" relative="1" as="geometry">
            <mxPoint x="996" y="695.75" as="sourcePoint" />
            <mxPoint x="1046" y="645.75" as="targetPoint" />
          </mxGeometry>
        </mxCell>
        <mxCell id="RN-i4offdI5VvVCZViMp-18" value="" style="endArrow=none;html=1;rounded=0;strokeWidth=2;" parent="1" source="RN-i4offdI5VvVCZViMp-16" target="RN-i4offdI5VvVCZViMp-14" edge="1">
          <mxGeometry width="50" height="50" relative="1" as="geometry">
            <mxPoint x="946.5" y="744.75" as="sourcePoint" />
            <mxPoint x="996.5" y="694.75" as="targetPoint" />
          </mxGeometry>
        </mxCell>
        <mxCell id="qlOuwwVBCWCUI03agFLa-2" value="S (0, l&lt;sub style=&quot;border-color: var(--border-color);&quot;&gt;olho&lt;/sub&gt;, l&lt;sub&gt;olho&lt;/sub&gt;)" style="ellipse;whiteSpace=wrap;html=1;fillColor=none;align=center;" parent="1" vertex="1">
          <mxGeometry x="1358.5" y="702" width="148" height="52" as="geometry" />
        </mxCell>
        <mxCell id="qlOuwwVBCWCUI03agFLa-3" value="&lt;font style=&quot;font-size: 12px;&quot;&gt;S (l&lt;sub&gt;antena&lt;/sub&gt;, h&lt;sub&gt;antena&lt;/sub&gt;, l&lt;sub&gt;antena&lt;/sub&gt;)&lt;/font&gt;" style="ellipse;whiteSpace=wrap;html=1;fillColor=none;align=center;" parent="1" vertex="1">
          <mxGeometry x="1621.5" y="702" width="148" height="52" as="geometry" />
        </mxCell>
        <mxCell id="qlOuwwVBCWCUI03agFLa-4" value="&lt;font style=&quot;&quot;&gt;T (l&lt;sub style=&quot;border-color: var(--border-color);&quot;&gt;&lt;font style=&quot;font-size: 10px;&quot;&gt;cabeça&lt;/font&gt;&lt;/sub&gt;&lt;span style=&quot;font-size: 12px; border-color: var(--border-color);&quot;&gt;/2&lt;/span&gt;, l&lt;sub style=&quot;&quot;&gt;&lt;font style=&quot;font-size: 10px;&quot;&gt;cabeça&lt;/font&gt;&lt;/sub&gt;/2 + l&lt;sub style=&quot;border-color: var(--border-color);&quot;&gt;&lt;font style=&quot;font-size: 10px;&quot;&gt;olho&lt;/font&gt;&lt;/sub&gt;, - l&lt;font style=&quot;font-size: 12px;&quot;&gt;&lt;sub style=&quot;&quot;&gt;olho&lt;/sub&gt;&lt;/font&gt;&lt;/font&gt;)" style="ellipse;whiteSpace=wrap;html=1;fillColor=none;align=center;" parent="1" vertex="1">
          <mxGeometry x="1318" y="627" width="229" height="52" as="geometry" />
        </mxCell>
        <mxCell id="qlOuwwVBCWCUI03agFLa-5" value="&lt;font style=&quot;&quot;&gt;T (l&lt;sub style=&quot;&quot;&gt;&lt;font style=&quot;font-size: 10px;&quot;&gt;antena&lt;/font&gt;&lt;/sub&gt;, l&lt;sub style=&quot;&quot;&gt;&lt;font style=&quot;font-size: 10px;&quot;&gt;cabeça&lt;/font&gt;&lt;/sub&gt;+ h&lt;sub style=&quot;&quot;&gt;&lt;font style=&quot;font-size: 10px;&quot;&gt;antena&lt;/font&gt;&lt;/sub&gt;/2, - l&lt;font style=&quot;font-size: 12px;&quot;&gt;&lt;sub style=&quot;&quot;&gt;antena&lt;/sub&gt;&lt;/font&gt;&lt;/font&gt;)" style="ellipse;whiteSpace=wrap;html=1;fillColor=none;align=center;" parent="1" vertex="1">
          <mxGeometry x="1580" y="627" width="231" height="52" as="geometry" />
        </mxCell>
        <mxCell id="qlOuwwVBCWCUI03agFLa-7" value="Cubo" style="whiteSpace=wrap;html=1;rounded=1;shadow=0;comic=0;strokeWidth=2;fontFamily=Verdana;align=center;fontSize=12;fontStyle=1;fillColor=none;" parent="1" vertex="1">
          <mxGeometry x="1626" y="782" width="139" height="47" as="geometry" />
        </mxCell>
        <mxCell id="qlOuwwVBCWCUI03agFLa-8" value="Cubo" style="whiteSpace=wrap;html=1;rounded=1;shadow=0;comic=0;strokeWidth=2;fontFamily=Verdana;align=center;fontSize=12;fontStyle=1;fillColor=none;" parent="1" vertex="1">
          <mxGeometry x="1363" y="782" width="139" height="47" as="geometry" />
        </mxCell>
        <mxCell id="qlOuwwVBCWCUI03agFLa-10" value="" style="endArrow=none;html=1;rounded=0;strokeWidth=2;" parent="1" source="qlOuwwVBCWCUI03agFLa-7" target="qlOuwwVBCWCUI03agFLa-3" edge="1">
          <mxGeometry width="50" height="50" relative="1" as="geometry">
            <mxPoint x="1779" y="648.5" as="sourcePoint" />
            <mxPoint x="1829" y="598.5" as="targetPoint" />
          </mxGeometry>
        </mxCell>
        <mxCell id="qlOuwwVBCWCUI03agFLa-11" value="" style="endArrow=none;html=1;rounded=0;strokeWidth=2;" parent="1" source="qlOuwwVBCWCUI03agFLa-3" target="qlOuwwVBCWCUI03agFLa-5" edge="1">
          <mxGeometry width="50" height="50" relative="1" as="geometry">
            <mxPoint x="1779" y="648.5" as="sourcePoint" />
            <mxPoint x="1829" y="598.5" as="targetPoint" />
          </mxGeometry>
        </mxCell>
        <mxCell id="qlOuwwVBCWCUI03agFLa-12" value="" style="endArrow=none;html=1;rounded=0;strokeWidth=2;" parent="1" source="qlOuwwVBCWCUI03agFLa-2" target="qlOuwwVBCWCUI03agFLa-8" edge="1">
          <mxGeometry width="50" height="50" relative="1" as="geometry">
            <mxPoint x="1629" y="648.5" as="sourcePoint" />
            <mxPoint x="1679" y="598.5" as="targetPoint" />
          </mxGeometry>
        </mxCell>
        <mxCell id="qlOuwwVBCWCUI03agFLa-13" value="" style="endArrow=none;html=1;rounded=0;strokeWidth=2;" parent="1" source="qlOuwwVBCWCUI03agFLa-4" target="qlOuwwVBCWCUI03agFLa-2" edge="1">
          <mxGeometry width="50" height="50" relative="1" as="geometry">
            <mxPoint x="1629" y="648.5" as="sourcePoint" />
            <mxPoint x="1679" y="598.5" as="targetPoint" />
          </mxGeometry>
        </mxCell>
        <mxCell id="qlOuwwVBCWCUI03agFLa-23" value="" style="ellipse;whiteSpace=wrap;html=1;aspect=fixed;fillColor=#000000;" parent="1" vertex="1">
          <mxGeometry x="1416.5" y="528" width="30" height="30" as="geometry" />
        </mxCell>
        <mxCell id="qlOuwwVBCWCUI03agFLa-25" value="&lt;font style=&quot;&quot;&gt;T (0, c&lt;sub style=&quot;&quot;&gt;&lt;font style=&quot;font-size: 10px;&quot;&gt;torso&lt;/font&gt;&lt;/sub&gt;/2, 0)&lt;/font&gt;" style="ellipse;whiteSpace=wrap;html=1;fillColor=none;align=center;" parent="1" vertex="1">
          <mxGeometry x="1367" y="332" width="131" height="52" as="geometry" />
        </mxCell>
        <mxCell id="qlOuwwVBCWCUI03agFLa-26" value="R&lt;sub&gt;z&lt;/sub&gt;(θ&lt;sub&gt;3&lt;/sub&gt;)" style="ellipse;whiteSpace=wrap;html=1;fillColor=none;align=center;" parent="1" vertex="1">
          <mxGeometry x="1367" y="407" width="131" height="52" as="geometry" />
        </mxCell>
        <mxCell id="qlOuwwVBCWCUI03agFLa-27" value="" style="endArrow=none;html=1;rounded=0;strokeWidth=2;" parent="1" source="qlOuwwVBCWCUI03agFLa-23" target="qlOuwwVBCWCUI03agFLa-26" edge="1">
          <mxGeometry width="50" height="50" relative="1" as="geometry">
            <mxPoint x="1398" y="474" as="sourcePoint" />
            <mxPoint x="1448" y="424" as="targetPoint" />
          </mxGeometry>
        </mxCell>
        <mxCell id="qlOuwwVBCWCUI03agFLa-28" value="" style="endArrow=none;html=1;rounded=0;strokeWidth=2;" parent="1" source="RN-i4offdI5VvVCZViMp-4" target="qlOuwwVBCWCUI03agFLa-25" edge="1">
          <mxGeometry width="50" height="50" relative="1" as="geometry">
            <mxPoint x="1398" y="474" as="sourcePoint" />
            <mxPoint x="1448" y="424" as="targetPoint" />
          </mxGeometry>
        </mxCell>
        <mxCell id="qlOuwwVBCWCUI03agFLa-29" value="" style="endArrow=none;html=1;rounded=0;strokeWidth=2;" parent="1" source="qlOuwwVBCWCUI03agFLa-26" target="qlOuwwVBCWCUI03agFLa-25" edge="1">
          <mxGeometry width="50" height="50" relative="1" as="geometry">
            <mxPoint x="1483.5" y="481" as="sourcePoint" />
            <mxPoint x="1533.5" y="431" as="targetPoint" />
          </mxGeometry>
        </mxCell>
        <mxCell id="qlOuwwVBCWCUI03agFLa-30" value="" style="endArrow=none;html=1;rounded=0;strokeWidth=2;" parent="1" source="RN-i4offdI5VvVCZViMp-14" target="qlOuwwVBCWCUI03agFLa-23" edge="1">
          <mxGeometry width="50" height="50" relative="1" as="geometry">
            <mxPoint x="1424" y="565.75" as="sourcePoint" />
            <mxPoint x="1474" y="515.75" as="targetPoint" />
          </mxGeometry>
        </mxCell>
        <mxCell id="qlOuwwVBCWCUI03agFLa-31" value="" style="endArrow=none;html=1;rounded=0;strokeWidth=2;" parent="1" source="qlOuwwVBCWCUI03agFLa-23" target="qlOuwwVBCWCUI03agFLa-4" edge="1">
          <mxGeometry width="50" height="50" relative="1" as="geometry">
            <mxPoint x="1587" y="488.75" as="sourcePoint" />
            <mxPoint x="1637" y="438.75" as="targetPoint" />
          </mxGeometry>
        </mxCell>
        <mxCell id="qlOuwwVBCWCUI03agFLa-32" value="" style="endArrow=none;html=1;rounded=0;strokeWidth=2;" parent="1" source="qlOuwwVBCWCUI03agFLa-5" target="qlOuwwVBCWCUI03agFLa-23" edge="1">
          <mxGeometry width="50" height="50" relative="1" as="geometry">
            <mxPoint x="1701" y="505.75" as="sourcePoint" />
            <mxPoint x="1751" y="455.75" as="targetPoint" />
          </mxGeometry>
        </mxCell>
        <mxCell id="qlOuwwVBCWCUI03agFLa-34" value="Cubo" style="whiteSpace=wrap;html=1;rounded=1;shadow=0;comic=0;strokeWidth=2;fontFamily=Verdana;align=center;fontSize=12;fontStyle=1;fillColor=none;" parent="1" vertex="1">
          <mxGeometry x="943" y="473.5" width="139" height="47" as="geometry" />
        </mxCell>
        <mxCell id="qlOuwwVBCWCUI03agFLa-35" value="S (c&lt;sub&gt;abdomen&lt;/sub&gt;, h&lt;sub&gt;abdomen&lt;/sub&gt;, l&lt;sub&gt;abdomen&lt;/sub&gt;)" style="ellipse;whiteSpace=wrap;html=1;fillColor=none;align=center;" parent="1" vertex="1">
          <mxGeometry x="922" y="400" width="181" height="52" as="geometry" />
        </mxCell>
        <mxCell id="qlOuwwVBCWCUI03agFLa-36" value="&lt;font style=&quot;&quot;&gt;T (0, - c&lt;sub style=&quot;&quot;&gt;&lt;font style=&quot;font-size: 10px;&quot;&gt;torso&lt;/font&gt;&lt;/sub&gt;/2 - h&lt;sub&gt;abdomen&lt;/sub&gt;/2, 0)&lt;/font&gt;" style="ellipse;whiteSpace=wrap;html=1;fillColor=none;align=center;" parent="1" vertex="1">
          <mxGeometry x="909" y="327" width="207" height="52" as="geometry" />
        </mxCell>
        <mxCell id="qlOuwwVBCWCUI03agFLa-37" value="S (c&lt;sub&gt;cintura&lt;/sub&gt;, h&lt;sub&gt;cintura&lt;/sub&gt;, l&lt;sub&gt;cintura&lt;/sub&gt;)" style="ellipse;whiteSpace=wrap;html=1;fillColor=none;align=center;" parent="1" vertex="1">
          <mxGeometry x="604" y="395" width="181" height="52" as="geometry" />
        </mxCell>
        <mxCell id="qlOuwwVBCWCUI03agFLa-38" value="&lt;font style=&quot;&quot;&gt;T (c&lt;sub&gt;abdomen&lt;/sub&gt;/2&amp;nbsp;+ c&lt;sub&gt;cintura&lt;/sub&gt;/2, - c&lt;sub style=&quot;&quot;&gt;&lt;font style=&quot;font-size: 10px;&quot;&gt;torso&lt;/font&gt;&lt;/sub&gt;/2 - h&lt;sub&gt;abdomen&lt;/sub&gt;&amp;nbsp;+ h&lt;sub&gt;cintura&lt;/sub&gt;/2, 0)&lt;/font&gt;" style="ellipse;whiteSpace=wrap;html=1;fillColor=none;align=center;" parent="1" vertex="1">
          <mxGeometry x="521" y="325" width="347" height="52" as="geometry" />
        </mxCell>
        <mxCell id="qlOuwwVBCWCUI03agFLa-39" value="Cubo" style="whiteSpace=wrap;html=1;rounded=1;shadow=0;comic=0;strokeWidth=2;fontFamily=Verdana;align=center;fontSize=12;fontStyle=1;fillColor=none;" parent="1" vertex="1">
          <mxGeometry x="625" y="468" width="139" height="47" as="geometry" />
        </mxCell>
        <mxCell id="qlOuwwVBCWCUI03agFLa-41" value="Cilindro" style="whiteSpace=wrap;html=1;rounded=1;shadow=0;comic=0;strokeWidth=2;fontFamily=Verdana;align=center;fontSize=12;fontStyle=1;fillColor=none;" parent="1" vertex="1">
          <mxGeometry x="259" y="511" width="139" height="47" as="geometry" />
        </mxCell>
        <mxCell id="qlOuwwVBCWCUI03agFLa-42" value="S (r&lt;sub&gt;roda&lt;/sub&gt;, h&lt;sub&gt;roda&lt;/sub&gt;, r&lt;sub&gt;roda&lt;/sub&gt;)" style="ellipse;whiteSpace=wrap;html=1;fillColor=none;align=center;" parent="1" vertex="1">
          <mxGeometry x="238" y="440" width="181" height="52" as="geometry" />
        </mxCell>
        <mxCell id="qlOuwwVBCWCUI03agFLa-43" value="&lt;font style=&quot;&quot;&gt;T (r&lt;sub&gt;roda&lt;/sub&gt;/8, - c&lt;sub style=&quot;&quot;&gt;&lt;font style=&quot;font-size: 10px;&quot;&gt;torso&lt;/font&gt;&lt;/sub&gt;/2 - h&lt;sub&gt;abdomen&lt;/sub&gt;&amp;nbsp;+ h&lt;sub&gt;cintura&lt;/sub&gt;/2, - l&lt;sub&gt;cintura&lt;/sub&gt;)&lt;/font&gt;" style="ellipse;whiteSpace=wrap;html=1;fillColor=none;align=center;" parent="1" vertex="1">
          <mxGeometry x="178" y="307" width="301" height="52" as="geometry" />
        </mxCell>
        <mxCell id="qlOuwwVBCWCUI03agFLa-46" value="&lt;font style=&quot;&quot;&gt;T (- c&lt;sub&gt;torso&lt;/sub&gt;/2 + c&lt;sub&gt;braço&lt;/sub&gt;/2, 0, - l&lt;sub&gt;torso&lt;/sub&gt;/2&amp;nbsp;- l&lt;sub&gt;braço&lt;/sub&gt;/2 +ρ&lt;sub style=&quot;border-color: var(--border-color);&quot;&gt;1&lt;/sub&gt;)&lt;/font&gt;" style="ellipse;whiteSpace=wrap;html=1;fillColor=none;align=center;" parent="1" vertex="1">
          <mxGeometry x="1860.5" y="416" width="279" height="52" as="geometry" />
        </mxCell>
        <mxCell id="qlOuwwVBCWCUI03agFLa-48" value="" style="ellipse;whiteSpace=wrap;html=1;aspect=fixed;fillColor=#000000;strokeWidth=1;" parent="1" vertex="1">
          <mxGeometry x="1985.3799999999999" y="509" width="29.25" height="29.25" as="geometry" />
        </mxCell>
        <mxCell id="qlOuwwVBCWCUI03agFLa-49" value="Cubo" style="whiteSpace=wrap;html=1;rounded=1;shadow=0;comic=0;strokeWidth=2;fontFamily=Verdana;align=center;fontSize=12;fontStyle=1;fillColor=none;" parent="1" vertex="1">
          <mxGeometry x="1930.5" y="709" width="139" height="47" as="geometry" />
        </mxCell>
        <mxCell id="qlOuwwVBCWCUI03agFLa-51" value="Cubo" style="whiteSpace=wrap;html=1;rounded=1;shadow=0;comic=0;strokeWidth=2;fontFamily=Verdana;align=center;fontSize=12;fontStyle=1;fillColor=none;" parent="1" vertex="1">
          <mxGeometry x="2250" y="765" width="139" height="47" as="geometry" />
        </mxCell>
        <mxCell id="qlOuwwVBCWCUI03agFLa-52" value="&lt;font style=&quot;&quot;&gt;T (- l&lt;sub&gt;braço&lt;/sub&gt;/2 + l&lt;sub&gt;antebraço&lt;/sub&gt;/2, - h&lt;sub&gt;antebraço&lt;/sub&gt;/2 - h&lt;sub&gt;braço&lt;/sub&gt;/2, 0)&lt;/font&gt;" style="ellipse;whiteSpace=wrap;html=1;fillColor=none;align=center;" parent="1" vertex="1">
          <mxGeometry x="2158" y="625" width="323" height="52" as="geometry" />
        </mxCell>
        <mxCell id="qlOuwwVBCWCUI03agFLa-53" value="S (l&lt;sub&gt;antebraço&lt;/sub&gt;, h&lt;sub&gt;antebraço&lt;/sub&gt;, h&lt;sub&gt;antebraço&lt;/sub&gt;)" style="ellipse;whiteSpace=wrap;html=1;fillColor=none;align=center;" parent="1" vertex="1">
          <mxGeometry x="2217.75" y="689.5" width="203.5" height="52" as="geometry" />
        </mxCell>
        <mxCell id="DzXn7Jo2ncsvV8um2Ctm-30" value="" style="endArrow=none;html=1;rounded=0;strokeWidth=2;" parent="1" source="qlOuwwVBCWCUI03agFLa-48" target="qlOuwwVBCWCUI03agFLa-46" edge="1">
          <mxGeometry width="50" height="50" relative="1" as="geometry">
            <mxPoint x="1432" y="290" as="sourcePoint" />
            <mxPoint x="1482" y="240" as="targetPoint" />
          </mxGeometry>
        </mxCell>
        <mxCell id="DzXn7Jo2ncsvV8um2Ctm-32" value="" style="endArrow=none;html=1;rounded=0;strokeWidth=2;" parent="1" source="qlOuwwVBCWCUI03agFLa-46" target="RN-i4offdI5VvVCZViMp-4" edge="1">
          <mxGeometry width="50" height="50" relative="1" as="geometry">
            <mxPoint x="1938.0431408579825" y="337.94213043637023" as="sourcePoint" />
            <mxPoint x="1877.5" y="333" as="targetPoint" />
          </mxGeometry>
        </mxCell>
        <mxCell id="DzXn7Jo2ncsvV8um2Ctm-35" value="" style="endArrow=none;html=1;rounded=0;entryX=0.5;entryY=1;entryDx=0;entryDy=0;strokeWidth=2;" parent="1" source="qlOuwwVBCWCUI03agFLa-50" target="qlOuwwVBCWCUI03agFLa-48" edge="1">
          <mxGeometry width="50" height="50" relative="1" as="geometry">
            <mxPoint x="2140.25" y="461.5" as="sourcePoint" />
            <mxPoint x="2190.25" y="411.5" as="targetPoint" />
          </mxGeometry>
        </mxCell>
        <mxCell id="DzXn7Jo2ncsvV8um2Ctm-36" value="" style="endArrow=none;html=1;rounded=0;strokeWidth=2;" parent="1" source="qlOuwwVBCWCUI03agFLa-50" target="qlOuwwVBCWCUI03agFLa-49" edge="1">
          <mxGeometry width="50" height="50" relative="1" as="geometry">
            <mxPoint x="2039.25" y="651.5" as="sourcePoint" />
            <mxPoint x="2110.25" y="553.5" as="targetPoint" />
          </mxGeometry>
        </mxCell>
        <mxCell id="DzXn7Jo2ncsvV8um2Ctm-37" value="" style="endArrow=none;html=1;rounded=0;strokeWidth=2;" parent="1" source="qlOuwwVBCWCUI03agFLa-52" target="qlOuwwVBCWCUI03agFLa-48" edge="1">
          <mxGeometry width="50" height="50" relative="1" as="geometry">
            <mxPoint x="2183.25" y="539.5" as="sourcePoint" />
            <mxPoint x="2233.25" y="489.5" as="targetPoint" />
          </mxGeometry>
        </mxCell>
        <mxCell id="DzXn7Jo2ncsvV8um2Ctm-38" value="" style="endArrow=none;html=1;rounded=0;entryX=0.5;entryY=1;entryDx=0;entryDy=0;strokeWidth=2;" parent="1" source="qlOuwwVBCWCUI03agFLa-53" target="qlOuwwVBCWCUI03agFLa-52" edge="1">
          <mxGeometry width="50" height="50" relative="1" as="geometry">
            <mxPoint x="2056" y="652" as="sourcePoint" />
            <mxPoint x="2106" y="602" as="targetPoint" />
          </mxGeometry>
        </mxCell>
        <mxCell id="DzXn7Jo2ncsvV8um2Ctm-39" value="" style="endArrow=none;html=1;rounded=0;entryX=0.5;entryY=1;entryDx=0;entryDy=0;strokeWidth=2;" parent="1" source="qlOuwwVBCWCUI03agFLa-51" target="qlOuwwVBCWCUI03agFLa-53" edge="1">
          <mxGeometry width="50" height="50" relative="1" as="geometry">
            <mxPoint x="2056" y="652" as="sourcePoint" />
            <mxPoint x="2106" y="602" as="targetPoint" />
          </mxGeometry>
        </mxCell>
        <mxCell id="DzXn7Jo2ncsvV8um2Ctm-40" value="" style="endArrow=none;html=1;rounded=0;exitX=0.5;exitY=0;exitDx=0;exitDy=0;strokeWidth=2;" parent="1" source="qlOuwwVBCWCUI03agFLa-36" target="RN-i4offdI5VvVCZViMp-4" edge="1">
          <mxGeometry width="50" height="50" relative="1" as="geometry">
            <mxPoint x="1263" y="398" as="sourcePoint" />
            <mxPoint x="1313" y="348" as="targetPoint" />
          </mxGeometry>
        </mxCell>
        <mxCell id="DzXn7Jo2ncsvV8um2Ctm-41" value="" style="endArrow=none;html=1;rounded=0;strokeWidth=2;" parent="1" source="qlOuwwVBCWCUI03agFLa-35" target="qlOuwwVBCWCUI03agFLa-36" edge="1">
          <mxGeometry width="50" height="50" relative="1" as="geometry">
            <mxPoint x="944" y="428.25" as="sourcePoint" />
            <mxPoint x="994" y="378.25" as="targetPoint" />
          </mxGeometry>
        </mxCell>
        <mxCell id="DzXn7Jo2ncsvV8um2Ctm-42" value="" style="endArrow=none;html=1;rounded=0;exitX=0.5;exitY=1;exitDx=0;exitDy=0;strokeWidth=2;" parent="1" source="qlOuwwVBCWCUI03agFLa-35" target="qlOuwwVBCWCUI03agFLa-34" edge="1">
          <mxGeometry width="50" height="50" relative="1" as="geometry">
            <mxPoint x="1030" y="428.25" as="sourcePoint" />
            <mxPoint x="1080" y="378.25" as="targetPoint" />
          </mxGeometry>
        </mxCell>
        <mxCell id="DzXn7Jo2ncsvV8um2Ctm-43" value="" style="endArrow=none;html=1;rounded=0;entryX=0.5;entryY=1;entryDx=0;entryDy=0;exitX=0.5;exitY=0;exitDx=0;exitDy=0;strokeWidth=2;" parent="1" source="qlOuwwVBCWCUI03agFLa-37" target="qlOuwwVBCWCUI03agFLa-38" edge="1">
          <mxGeometry width="50" height="50" relative="1" as="geometry">
            <mxPoint x="837" y="425" as="sourcePoint" />
            <mxPoint x="887" y="375" as="targetPoint" />
          </mxGeometry>
        </mxCell>
        <mxCell id="DzXn7Jo2ncsvV8um2Ctm-44" value="" style="endArrow=none;html=1;rounded=0;exitX=0.5;exitY=0;exitDx=0;exitDy=0;entryX=0.5;entryY=1;entryDx=0;entryDy=0;strokeWidth=2;" parent="1" source="qlOuwwVBCWCUI03agFLa-39" target="qlOuwwVBCWCUI03agFLa-37" edge="1">
          <mxGeometry width="50" height="50" relative="1" as="geometry">
            <mxPoint x="837" y="425" as="sourcePoint" />
            <mxPoint x="887" y="375" as="targetPoint" />
          </mxGeometry>
        </mxCell>
        <mxCell id="DzXn7Jo2ncsvV8um2Ctm-45" value="" style="endArrow=none;html=1;rounded=0;exitX=0.5;exitY=0;exitDx=0;exitDy=0;strokeWidth=2;" parent="1" source="DzXn7Jo2ncsvV8um2Ctm-51" target="RN-i4offdI5VvVCZViMp-4" edge="1">
          <mxGeometry width="50" height="50" relative="1" as="geometry">
            <mxPoint x="889.7380000000003" y="186.52999999999997" as="sourcePoint" />
            <mxPoint x="762" y="352" as="targetPoint" />
          </mxGeometry>
        </mxCell>
        <mxCell id="DzXn7Jo2ncsvV8um2Ctm-46" value="" style="endArrow=none;html=1;rounded=0;exitX=0.5;exitY=0;exitDx=0;exitDy=0;strokeWidth=2;" parent="1" source="qlOuwwVBCWCUI03agFLa-42" target="Gb6LevgNshtwQaWvTbLj-1" edge="1">
          <mxGeometry width="50" height="50" relative="1" as="geometry">
            <mxPoint x="411" y="405" as="sourcePoint" />
            <mxPoint x="461" y="355" as="targetPoint" />
          </mxGeometry>
        </mxCell>
        <mxCell id="DzXn7Jo2ncsvV8um2Ctm-47" value="" style="endArrow=none;html=1;rounded=0;entryX=0.5;entryY=1;entryDx=0;entryDy=0;exitX=0.5;exitY=0;exitDx=0;exitDy=0;strokeWidth=2;" parent="1" source="qlOuwwVBCWCUI03agFLa-41" target="qlOuwwVBCWCUI03agFLa-42" edge="1">
          <mxGeometry width="50" height="50" relative="1" as="geometry">
            <mxPoint x="411" y="405" as="sourcePoint" />
            <mxPoint x="461" y="355" as="targetPoint" />
          </mxGeometry>
        </mxCell>
        <mxCell id="DzXn7Jo2ncsvV8um2Ctm-50" value="R&lt;sub&gt;z&lt;/sub&gt;(θ&lt;sub&gt;2&lt;/sub&gt;)" style="ellipse;whiteSpace=wrap;html=1;fillColor=none;align=center;" parent="1" vertex="1">
          <mxGeometry x="-194.5" y="382" width="181" height="52" as="geometry" />
        </mxCell>
        <mxCell id="DzXn7Jo2ncsvV8um2Ctm-51" value="T(r&lt;sub style=&quot;border-color: var(--border-color);&quot;&gt;roda&lt;/sub&gt;/8, - c&lt;sub style=&quot;border-color: var(--border-color);&quot;&gt;&lt;font style=&quot;border-color: var(--border-color);&quot;&gt;torso&lt;/font&gt;&lt;/sub&gt;/2 - h&lt;sub style=&quot;border-color: var(--border-color);&quot;&gt;abdomen&lt;/sub&gt;&amp;nbsp;+ h&lt;sub style=&quot;border-color: var(--border-color);&quot;&gt;cintura&lt;/sub&gt;/2, - l&lt;sub&gt;abdomen&lt;/sub&gt;/2 + l&lt;sub&gt;coxa&lt;/sub&gt;/2)" style="ellipse;whiteSpace=wrap;html=1;fillColor=none;align=center;" parent="1" vertex="1">
          <mxGeometry x="-294" y="307" width="380" height="52" as="geometry" />
        </mxCell>
        <mxCell id="DzXn7Jo2ncsvV8um2Ctm-53" value="" style="endArrow=none;html=1;rounded=0;entryX=0.5;entryY=1;entryDx=0;entryDy=0;exitX=0.5;exitY=0;exitDx=0;exitDy=0;strokeWidth=2;" parent="1" source="DzXn7Jo2ncsvV8um2Ctm-50" target="DzXn7Jo2ncsvV8um2Ctm-51" edge="1">
          <mxGeometry width="50" height="50" relative="1" as="geometry">
            <mxPoint x="58" y="445" as="sourcePoint" />
            <mxPoint x="108" y="395" as="targetPoint" />
          </mxGeometry>
        </mxCell>
        <mxCell id="DzXn7Jo2ncsvV8um2Ctm-54" value="" style="endArrow=none;html=1;rounded=0;entryX=0.5;entryY=1;entryDx=0;entryDy=0;exitX=0.5;exitY=0;exitDx=0;exitDy=0;strokeWidth=2;" parent="1" source="Q5FcKZNCAvIhdIwWGUe6-6" target="DzXn7Jo2ncsvV8um2Ctm-50" edge="1">
          <mxGeometry width="50" height="50" relative="1" as="geometry">
            <mxPoint x="-84" y="528" as="sourcePoint" />
            <mxPoint x="108" y="395" as="targetPoint" />
          </mxGeometry>
        </mxCell>
        <mxCell id="DzXn7Jo2ncsvV8um2Ctm-56" value="S (l&lt;sub&gt;coxa&lt;/sub&gt;, h&lt;sub&gt;coxa&lt;/sub&gt;, l&lt;font style=&quot;font-size: 12px;&quot;&gt;&lt;sub&gt;coxa&lt;/sub&gt;&lt;/font&gt;)" style="ellipse;whiteSpace=wrap;html=1;fillColor=none;align=center;" parent="1" vertex="1">
          <mxGeometry x="-375.5" y="754" width="181" height="52" as="geometry" />
        </mxCell>
        <mxCell id="DzXn7Jo2ncsvV8um2Ctm-58" value="Cubo" style="whiteSpace=wrap;html=1;rounded=1;shadow=0;comic=0;strokeWidth=2;fontFamily=Verdana;align=center;fontSize=12;fontStyle=1;fillColor=none;" parent="1" vertex="1">
          <mxGeometry x="-354.5" y="829" width="139" height="47" as="geometry" />
        </mxCell>
        <mxCell id="DzXn7Jo2ncsvV8um2Ctm-59" value="" style="endArrow=none;html=1;rounded=0;exitX=0.5;exitY=0;exitDx=0;exitDy=0;strokeWidth=2;" parent="1" source="Q5FcKZNCAvIhdIwWGUe6-8" target="Q5FcKZNCAvIhdIwWGUe6-6" edge="1">
          <mxGeometry width="50" height="50" relative="1" as="geometry">
            <mxPoint x="58" y="696.75" as="sourcePoint" />
            <mxPoint x="-81.5" y="647.9999999999998" as="targetPoint" />
          </mxGeometry>
        </mxCell>
        <mxCell id="DzXn7Jo2ncsvV8um2Ctm-60" value="" style="endArrow=none;html=1;rounded=0;exitX=0.5;exitY=0;exitDx=0;exitDy=0;entryX=0.5;entryY=1;entryDx=0;entryDy=0;strokeWidth=2;" parent="1" source="DzXn7Jo2ncsvV8um2Ctm-58" target="DzXn7Jo2ncsvV8um2Ctm-56" edge="1">
          <mxGeometry width="50" height="50" relative="1" as="geometry">
            <mxPoint x="-140.5" y="806.25" as="sourcePoint" />
            <mxPoint x="-90.5" y="756.25" as="targetPoint" />
          </mxGeometry>
        </mxCell>
        <mxCell id="DzXn7Jo2ncsvV8um2Ctm-62" value="Cilindro" style="whiteSpace=wrap;html=1;rounded=1;shadow=0;comic=0;strokeWidth=2;fontFamily=Verdana;align=center;fontSize=12;fontStyle=1;fillColor=none;" parent="1" vertex="1">
          <mxGeometry x="2627" y="731" width="139" height="47" as="geometry" />
        </mxCell>
        <mxCell id="DzXn7Jo2ncsvV8um2Ctm-63" value="S (r&lt;font style=&quot;font-size: 12px;&quot;&gt;&lt;sub&gt;tubo&lt;/sub&gt;&lt;/font&gt;, h&lt;font style=&quot;font-size: 12px;&quot;&gt;&lt;sub&gt;tubo&lt;/sub&gt;&lt;/font&gt;&lt;span style=&quot;font-size: 10px;&quot;&gt;,&amp;nbsp;&lt;/span&gt;r&lt;sub style=&quot;border-color: var(--border-color);&quot;&gt;tubo&lt;/sub&gt;)" style="ellipse;whiteSpace=wrap;html=1;fillColor=none;align=center;" parent="1" vertex="1">
          <mxGeometry x="2607" y="645" width="181" height="52" as="geometry" />
        </mxCell>
        <mxCell id="DzXn7Jo2ncsvV8um2Ctm-64" value="&lt;font style=&quot;&quot;&gt;T (- l&lt;sub&gt;braço&lt;/sub&gt;/2 - r&lt;sub&gt;tubo&lt;/sub&gt;, -&lt;sub style=&quot;border-color: var(--border-color);&quot;&gt;&amp;nbsp;&lt;/sub&gt;&lt;span style=&quot;border-color: var(--border-color);&quot;&gt;h&lt;sub&gt;braço&lt;/sub&gt;/2&lt;/span&gt;, 0)&lt;/font&gt;" style="ellipse;whiteSpace=wrap;html=1;fillColor=none;align=center;" parent="1" vertex="1">
          <mxGeometry x="2547" y="568" width="301" height="52" as="geometry" />
        </mxCell>
        <mxCell id="DzXn7Jo2ncsvV8um2Ctm-65" value="" style="endArrow=none;html=1;rounded=0;entryX=0.5;entryY=1;entryDx=0;entryDy=0;exitX=0.5;exitY=0;exitDx=0;exitDy=0;strokeWidth=2;" parent="1" source="DzXn7Jo2ncsvV8um2Ctm-63" target="DzXn7Jo2ncsvV8um2Ctm-64" edge="1">
          <mxGeometry width="50" height="50" relative="1" as="geometry">
            <mxPoint x="2760" y="756" as="sourcePoint" />
            <mxPoint x="2810" y="706" as="targetPoint" />
          </mxGeometry>
        </mxCell>
        <mxCell id="DzXn7Jo2ncsvV8um2Ctm-68" value="" style="endArrow=none;html=1;rounded=0;exitX=0.5;exitY=0;exitDx=0;exitDy=0;strokeWidth=2;" parent="1" source="DzXn7Jo2ncsvV8um2Ctm-62" target="DzXn7Jo2ncsvV8um2Ctm-63" edge="1">
          <mxGeometry width="50" height="50" relative="1" as="geometry">
            <mxPoint x="2673" y="865" as="sourcePoint" />
            <mxPoint x="2672.5" y="848" as="targetPoint" />
          </mxGeometry>
        </mxCell>
        <mxCell id="Q5FcKZNCAvIhdIwWGUe6-5" style="edgeStyle=orthogonalEdgeStyle;rounded=0;orthogonalLoop=1;jettySize=auto;html=1;exitX=0.5;exitY=1;exitDx=0;exitDy=0;" parent="1" edge="1">
          <mxGeometry relative="1" as="geometry">
            <mxPoint x="-157.5" y="646.2499999999998" as="sourcePoint" />
            <mxPoint x="-157.5" y="646.2499999999998" as="targetPoint" />
          </mxGeometry>
        </mxCell>
        <mxCell id="Q5FcKZNCAvIhdIwWGUe6-6" value="" style="ellipse;whiteSpace=wrap;html=1;aspect=fixed;fillColor=#000000;" parent="1" vertex="1">
          <mxGeometry x="-118.25" y="482.5" width="28.5" height="28.5" as="geometry" />
        </mxCell>
        <mxCell id="Q5FcKZNCAvIhdIwWGUe6-9" value="" style="endArrow=none;html=1;rounded=0;entryX=0.5;entryY=1;entryDx=0;entryDy=0;exitX=0.5;exitY=0;exitDx=0;exitDy=0;strokeWidth=2;" parent="1" source="DzXn7Jo2ncsvV8um2Ctm-56" target="Q5FcKZNCAvIhdIwWGUe6-8" edge="1">
          <mxGeometry width="50" height="50" relative="1" as="geometry">
            <mxPoint x="-284.5" y="781.25" as="sourcePoint" />
            <mxPoint x="-160.5" y="644.25" as="targetPoint" />
          </mxGeometry>
        </mxCell>
        <mxCell id="Q5FcKZNCAvIhdIwWGUe6-8" value="T (0, - h&lt;sub&gt;cintura&lt;/sub&gt;/2 - h&lt;sub&gt;coxa&lt;/sub&gt;/2, 0)" style="ellipse;whiteSpace=wrap;html=1;fillColor=none;align=center;" parent="1" vertex="1">
          <mxGeometry x="-375.5" y="679" width="181" height="52" as="geometry" />
        </mxCell>
        <mxCell id="Q5FcKZNCAvIhdIwWGUe6-10" value="S (l&lt;sub&gt;perna&lt;/sub&gt;, h&lt;sub&gt;perna&lt;/sub&gt;, l&lt;sub&gt;perna&lt;/sub&gt;)" style="ellipse;whiteSpace=wrap;html=1;fillColor=none;align=center;" parent="1" vertex="1">
          <mxGeometry x="-129" y="754" width="181" height="52" as="geometry" />
        </mxCell>
        <mxCell id="Q5FcKZNCAvIhdIwWGUe6-11" value="Cubo" style="whiteSpace=wrap;html=1;rounded=1;shadow=0;comic=0;strokeWidth=2;fontFamily=Verdana;align=center;fontSize=12;fontStyle=1;fillColor=none;" parent="1" vertex="1">
          <mxGeometry x="-108" y="829" width="139" height="47" as="geometry" />
        </mxCell>
        <mxCell id="Q5FcKZNCAvIhdIwWGUe6-12" value="" style="endArrow=none;html=1;rounded=0;exitX=0.5;exitY=0;exitDx=0;exitDy=0;entryX=0.5;entryY=1;entryDx=0;entryDy=0;strokeWidth=2;" parent="1" source="Q5FcKZNCAvIhdIwWGUe6-11" target="Q5FcKZNCAvIhdIwWGUe6-10" edge="1">
          <mxGeometry width="50" height="50" relative="1" as="geometry">
            <mxPoint x="67" y="808.25" as="sourcePoint" />
            <mxPoint x="117" y="758.25" as="targetPoint" />
          </mxGeometry>
        </mxCell>
        <mxCell id="Q5FcKZNCAvIhdIwWGUe6-13" style="edgeStyle=orthogonalEdgeStyle;rounded=0;orthogonalLoop=1;jettySize=auto;html=1;exitX=0.5;exitY=1;exitDx=0;exitDy=0;" parent="1" edge="1">
          <mxGeometry relative="1" as="geometry">
            <mxPoint x="125.5" y="714.7499999999998" as="sourcePoint" />
            <mxPoint x="125.5" y="714.7499999999998" as="targetPoint" />
          </mxGeometry>
        </mxCell>
        <mxCell id="Q5FcKZNCAvIhdIwWGUe6-14" value="" style="endArrow=none;html=1;rounded=0;entryX=0.5;entryY=1;entryDx=0;entryDy=0;exitX=0.5;exitY=0;exitDx=0;exitDy=0;strokeWidth=2;" parent="1" source="Q5FcKZNCAvIhdIwWGUe6-10" target="Q5FcKZNCAvIhdIwWGUe6-15" edge="1">
          <mxGeometry width="50" height="50" relative="1" as="geometry">
            <mxPoint x="-77" y="783.25" as="sourcePoint" />
            <mxPoint x="47" y="646.25" as="targetPoint" />
          </mxGeometry>
        </mxCell>
        <mxCell id="Q5FcKZNCAvIhdIwWGUe6-15" value="T (0, - h&lt;sub&gt;cintura&lt;/sub&gt;/2 - h&lt;sub&gt;coxa&lt;/sub&gt; - h&lt;sub&gt;perna&lt;/sub&gt;/2, 0)" style="ellipse;whiteSpace=wrap;html=1;fillColor=none;align=center;" parent="1" vertex="1">
          <mxGeometry x="-154" y="679" width="231" height="52" as="geometry" />
        </mxCell>
        <mxCell id="Q5FcKZNCAvIhdIwWGUe6-16" value="" style="endArrow=none;html=1;rounded=0;exitX=0.5;exitY=0;exitDx=0;exitDy=0;strokeWidth=2;" parent="1" source="Q5FcKZNCAvIhdIwWGUe6-15" target="Q5FcKZNCAvIhdIwWGUe6-6" edge="1">
          <mxGeometry width="50" height="50" relative="1" as="geometry">
            <mxPoint x="-195" y="693" as="sourcePoint" />
            <mxPoint x="-78" y="564" as="targetPoint" />
          </mxGeometry>
        </mxCell>
        <mxCell id="Q5FcKZNCAvIhdIwWGUe6-17" value="Cilindro" style="whiteSpace=wrap;html=1;rounded=1;shadow=0;comic=0;strokeWidth=2;fontFamily=Verdana;align=center;fontSize=12;fontStyle=1;fillColor=none;" parent="1" vertex="1">
          <mxGeometry x="190" y="923" width="139" height="47" as="geometry" />
        </mxCell>
        <mxCell id="Q5FcKZNCAvIhdIwWGUe6-18" value="S (r&lt;sub&gt;roda&lt;/sub&gt;, h&lt;sub&gt;roda&lt;/sub&gt;, r&lt;sub&gt;roda&lt;/sub&gt;)" style="ellipse;whiteSpace=wrap;html=1;fillColor=none;align=center;" parent="1" vertex="1">
          <mxGeometry x="169" y="850" width="181" height="52" as="geometry" />
        </mxCell>
        <mxCell id="Q5FcKZNCAvIhdIwWGUe6-19" value="&lt;font style=&quot;&quot;&gt;T (0, - h&lt;sub style=&quot;border-color: var(--border-color);&quot;&gt;cintura&lt;/sub&gt;/2 - h&lt;sub style=&quot;border-color: var(--border-color);&quot;&gt;coxa&lt;/sub&gt;&amp;nbsp;- h&lt;sub style=&quot;border-color: var(--border-color);&quot;&gt;perna&lt;/sub&gt;/2, - l&lt;sub&gt;perna&lt;/sub&gt;/2 - l&lt;sub&gt;roda&lt;/sub&gt;)&lt;/font&gt;" style="ellipse;whiteSpace=wrap;html=1;fillColor=none;align=center;" parent="1" vertex="1">
          <mxGeometry x="109" y="682.75" width="301" height="52" as="geometry" />
        </mxCell>
        <mxCell id="Q5FcKZNCAvIhdIwWGUe6-20" value="" style="endArrow=none;html=1;rounded=0;entryX=0.5;entryY=1;entryDx=0;entryDy=0;strokeWidth=2;" parent="1" source="Gb6LevgNshtwQaWvTbLj-4" target="Q5FcKZNCAvIhdIwWGUe6-19" edge="1">
          <mxGeometry width="50" height="50" relative="1" as="geometry">
            <mxPoint x="342" y="780.75" as="sourcePoint" />
            <mxPoint x="392" y="730.75" as="targetPoint" />
          </mxGeometry>
        </mxCell>
        <mxCell id="Q5FcKZNCAvIhdIwWGUe6-21" value="" style="endArrow=none;html=1;rounded=0;entryX=0.5;entryY=1;entryDx=0;entryDy=0;exitX=0.5;exitY=0;exitDx=0;exitDy=0;strokeWidth=2;" parent="1" source="Q5FcKZNCAvIhdIwWGUe6-17" target="Q5FcKZNCAvIhdIwWGUe6-18" edge="1">
          <mxGeometry width="50" height="50" relative="1" as="geometry">
            <mxPoint x="348.5" y="878" as="sourcePoint" />
            <mxPoint x="398.5" y="828" as="targetPoint" />
          </mxGeometry>
        </mxCell>
        <mxCell id="Q5FcKZNCAvIhdIwWGUe6-22" style="edgeStyle=orthogonalEdgeStyle;rounded=0;orthogonalLoop=1;jettySize=auto;html=1;exitX=0.5;exitY=1;exitDx=0;exitDy=0;" parent="1" edge="1">
          <mxGeometry relative="1" as="geometry">
            <mxPoint x="454.5" y="714.7499999999998" as="sourcePoint" />
            <mxPoint x="454.5" y="714.7499999999998" as="targetPoint" />
          </mxGeometry>
        </mxCell>
        <mxCell id="Q5FcKZNCAvIhdIwWGUe6-23" value="Cilindro" style="whiteSpace=wrap;html=1;rounded=1;shadow=0;comic=0;strokeWidth=2;fontFamily=Verdana;align=center;fontSize=12;fontStyle=1;fillColor=none;" parent="1" vertex="1">
          <mxGeometry x="524.5" y="914" width="139" height="47" as="geometry" />
        </mxCell>
        <mxCell id="Q5FcKZNCAvIhdIwWGUe6-24" value="S (r&lt;sub&gt;roda&lt;/sub&gt;, h&lt;sub&gt;roda&lt;/sub&gt;, r&lt;sub&gt;roda&lt;/sub&gt;)" style="ellipse;whiteSpace=wrap;html=1;fillColor=none;align=center;" parent="1" vertex="1">
          <mxGeometry x="503.5" y="832" width="181" height="52" as="geometry" />
        </mxCell>
        <mxCell id="Q5FcKZNCAvIhdIwWGUe6-25" value="&lt;font style=&quot;&quot;&gt;T (0, - h&lt;sub style=&quot;border-color: var(--border-color);&quot;&gt;cintura&lt;/sub&gt;/2 - h&lt;sub style=&quot;border-color: var(--border-color);&quot;&gt;coxa&lt;/sub&gt;&amp;nbsp;- h&lt;sub style=&quot;border-color: var(--border-color);&quot;&gt;perna&lt;/sub&gt;, - l&lt;sub style=&quot;border-color: var(--border-color);&quot;&gt;perna&lt;/sub&gt;/2 - l&lt;sub style=&quot;border-color: var(--border-color);&quot;&gt;roda&lt;/sub&gt;)&lt;/font&gt;" style="ellipse;whiteSpace=wrap;html=1;fillColor=none;align=center;" parent="1" vertex="1">
          <mxGeometry x="438" y="682.75" width="312" height="52" as="geometry" />
        </mxCell>
        <mxCell id="Q5FcKZNCAvIhdIwWGUe6-27" value="" style="endArrow=none;html=1;rounded=0;entryX=0.5;entryY=1;entryDx=0;entryDy=0;exitX=0.5;exitY=0;exitDx=0;exitDy=0;strokeWidth=2;" parent="1" source="Q5FcKZNCAvIhdIwWGUe6-23" target="Q5FcKZNCAvIhdIwWGUe6-24" edge="1">
          <mxGeometry width="50" height="50" relative="1" as="geometry">
            <mxPoint x="677.5" y="884.75" as="sourcePoint" />
            <mxPoint x="727.5" y="834.75" as="targetPoint" />
          </mxGeometry>
        </mxCell>
        <mxCell id="Q5FcKZNCAvIhdIwWGUe6-28" value="" style="endArrow=none;html=1;rounded=0;exitX=0.5;exitY=0;exitDx=0;exitDy=0;strokeWidth=2;" parent="1" source="Q5FcKZNCAvIhdIwWGUe6-19" target="Q5FcKZNCAvIhdIwWGUe6-6" edge="1">
          <mxGeometry width="50" height="50" relative="1" as="geometry">
            <mxPoint x="316" y="683" as="sourcePoint" />
            <mxPoint x="366" y="633" as="targetPoint" />
          </mxGeometry>
        </mxCell>
        <mxCell id="Q5FcKZNCAvIhdIwWGUe6-29" value="" style="endArrow=none;html=1;rounded=0;entryX=0.5;entryY=0;entryDx=0;entryDy=0;strokeWidth=2;" parent="1" source="Q5FcKZNCAvIhdIwWGUe6-6" target="Q5FcKZNCAvIhdIwWGUe6-25" edge="1">
          <mxGeometry width="50" height="50" relative="1" as="geometry">
            <mxPoint x="-69" y="545" as="sourcePoint" />
            <mxPoint x="366" y="633" as="targetPoint" />
          </mxGeometry>
        </mxCell>
        <mxCell id="Q5FcKZNCAvIhdIwWGUe6-39" value="" style="endArrow=none;html=1;rounded=0;exitX=0.5;exitY=0;exitDx=0;exitDy=0;strokeWidth=2;" parent="1" source="Q5FcKZNCAvIhdIwWGUe6-51" target="Q5FcKZNCAvIhdIwWGUe6-6" edge="1">
          <mxGeometry width="50" height="50" relative="1" as="geometry">
            <mxPoint x="-382.5000000000002" y="592" as="sourcePoint" />
            <mxPoint x="-112" y="621" as="targetPoint" />
          </mxGeometry>
        </mxCell>
        <mxCell id="Q5FcKZNCAvIhdIwWGUe6-51" value="&amp;nbsp;T (0, - h&lt;sub style=&quot;border-color: var(--border-color);&quot;&gt;cintura&lt;/sub&gt;/2 - h&lt;sub style=&quot;border-color: var(--border-color);&quot;&gt;coxa&lt;/sub&gt;&amp;nbsp;- h&lt;sub style=&quot;border-color: var(--border-color);&quot;&gt;perna&lt;/sub&gt;, - l&lt;sub&gt;perna&lt;/sub&gt;/2 + h&lt;sub&gt;roda&lt;/sub&gt;/2)" style="ellipse;whiteSpace=wrap;html=1;fillColor=none;align=center;" parent="1" vertex="1">
          <mxGeometry x="-712" y="627" width="313" height="52" as="geometry" />
        </mxCell>
        <mxCell id="Q5FcKZNCAvIhdIwWGUe6-55" value="R&lt;sub&gt;z&lt;/sub&gt; (θ&lt;sub&gt;1&lt;/sub&gt;)" style="ellipse;whiteSpace=wrap;html=1;fillColor=none;align=center;" parent="1" vertex="1">
          <mxGeometry x="-646" y="697" width="181" height="52" as="geometry" />
        </mxCell>
        <mxCell id="Q5FcKZNCAvIhdIwWGUe6-56" value="S (l&lt;sub&gt;pé&lt;/sub&gt;, h&lt;sub&gt;pé&lt;/sub&gt;, l&lt;sub&gt;pé&lt;/sub&gt;)" style="ellipse;whiteSpace=wrap;html=1;fillColor=none;align=center;" parent="1" vertex="1">
          <mxGeometry x="-646" y="923" width="181" height="52" as="geometry" />
        </mxCell>
        <mxCell id="Q5FcKZNCAvIhdIwWGUe6-57" value="T (0, -h&lt;sub&gt;pé&lt;/sub&gt;/2, 0)" style="ellipse;whiteSpace=wrap;html=1;fillColor=none;align=center;" parent="1" vertex="1">
          <mxGeometry x="-646" y="847" width="181" height="52" as="geometry" />
        </mxCell>
        <mxCell id="Q5FcKZNCAvIhdIwWGUe6-58" value="" style="endArrow=none;html=1;rounded=0;exitX=0.5;exitY=0;exitDx=0;exitDy=0;entryX=0.5;entryY=1;entryDx=0;entryDy=0;strokeWidth=2;" parent="1" source="Q5FcKZNCAvIhdIwWGUe6-56" target="Q5FcKZNCAvIhdIwWGUe6-57" edge="1">
          <mxGeometry width="50" height="50" relative="1" as="geometry">
            <mxPoint x="-352" y="913.25" as="sourcePoint" />
            <mxPoint x="-302" y="863.25" as="targetPoint" />
          </mxGeometry>
        </mxCell>
        <mxCell id="Q5FcKZNCAvIhdIwWGUe6-59" value="Cubo" style="whiteSpace=wrap;html=1;rounded=1;shadow=0;comic=0;strokeWidth=2;fontFamily=Verdana;align=center;fontSize=12;fontStyle=1;fillColor=none;" parent="1" vertex="1">
          <mxGeometry x="-625" y="1009" width="139" height="47" as="geometry" />
        </mxCell>
        <mxCell id="Q5FcKZNCAvIhdIwWGUe6-60" value="" style="endArrow=none;html=1;rounded=0;entryX=0.5;entryY=1;entryDx=0;entryDy=0;exitX=0.5;exitY=0;exitDx=0;exitDy=0;strokeWidth=2;" parent="1" source="Q5FcKZNCAvIhdIwWGUe6-59" target="Q5FcKZNCAvIhdIwWGUe6-56" edge="1">
          <mxGeometry width="50" height="50" relative="1" as="geometry">
            <mxPoint x="-352" y="1257.25" as="sourcePoint" />
            <mxPoint x="-302" y="1207.25" as="targetPoint" />
          </mxGeometry>
        </mxCell>
        <mxCell id="Q5FcKZNCAvIhdIwWGUe6-61" value="" style="endArrow=none;html=1;rounded=0;entryX=0.5;entryY=1;entryDx=0;entryDy=0;strokeWidth=2;" parent="1" source="Q5FcKZNCAvIhdIwWGUe6-55" target="Q5FcKZNCAvIhdIwWGUe6-51" edge="1">
          <mxGeometry width="50" height="50" relative="1" as="geometry">
            <mxPoint x="-449" y="751" as="sourcePoint" />
            <mxPoint x="-399" y="701" as="targetPoint" />
          </mxGeometry>
        </mxCell>
        <mxCell id="Q5FcKZNCAvIhdIwWGUe6-62" value="" style="ellipse;whiteSpace=wrap;html=1;aspect=fixed;fillColor=#000000;" parent="1" vertex="1">
          <mxGeometry x="-570.75" y="766.75" width="30.5" height="30.5" as="geometry" />
        </mxCell>
        <mxCell id="Q5FcKZNCAvIhdIwWGUe6-64" value="" style="endArrow=none;html=1;rounded=0;exitX=0.5;exitY=0;exitDx=0;exitDy=0;strokeWidth=2;" parent="1" source="Q5FcKZNCAvIhdIwWGUe6-57" target="Q5FcKZNCAvIhdIwWGUe6-62" edge="1">
          <mxGeometry width="50" height="50" relative="1" as="geometry">
            <mxPoint x="-49" y="861" as="sourcePoint" />
            <mxPoint x="1" y="811" as="targetPoint" />
          </mxGeometry>
        </mxCell>
        <mxCell id="Q5FcKZNCAvIhdIwWGUe6-65" value="" style="endArrow=none;html=1;rounded=0;entryX=0.5;entryY=1;entryDx=0;entryDy=0;exitX=0.5;exitY=0;exitDx=0;exitDy=0;strokeWidth=2;" parent="1" source="Q5FcKZNCAvIhdIwWGUe6-62" target="Q5FcKZNCAvIhdIwWGUe6-55" edge="1">
          <mxGeometry width="50" height="50" relative="1" as="geometry">
            <mxPoint x="-571" y="781" as="sourcePoint" />
            <mxPoint x="1" y="811" as="targetPoint" />
          </mxGeometry>
        </mxCell>
        <mxCell id="Q5FcKZNCAvIhdIwWGUe6-66" value="" style="endArrow=none;html=1;rounded=0;exitX=0.5;exitY=0;exitDx=0;exitDy=0;strokeWidth=2;" parent="1" source="qlOuwwVBCWCUI03agFLa-43" target="RN-i4offdI5VvVCZViMp-4" edge="1">
          <mxGeometry width="50" height="50" relative="1" as="geometry">
            <mxPoint x="475" y="258" as="sourcePoint" />
            <mxPoint x="525" y="208" as="targetPoint" />
          </mxGeometry>
        </mxCell>
        <mxCell id="Q5FcKZNCAvIhdIwWGUe6-67" value="" style="endArrow=none;html=1;rounded=0;exitX=0.5;exitY=0;exitDx=0;exitDy=0;strokeWidth=2;" parent="1" source="qlOuwwVBCWCUI03agFLa-38" target="RN-i4offdI5VvVCZViMp-4" edge="1">
          <mxGeometry width="50" height="50" relative="1" as="geometry">
            <mxPoint x="475" y="258" as="sourcePoint" />
            <mxPoint x="525" y="208" as="targetPoint" />
          </mxGeometry>
        </mxCell>
        <mxCell id="Gb6LevgNshtwQaWvTbLj-1" value="R&lt;sub&gt;x&lt;/sub&gt;(90º)" style="ellipse;whiteSpace=wrap;html=1;fillColor=none;align=center;" parent="1" vertex="1">
          <mxGeometry x="238" y="373" width="181" height="52" as="geometry" />
        </mxCell>
        <mxCell id="Gb6LevgNshtwQaWvTbLj-2" value="" style="endArrow=none;html=1;rounded=0;strokeWidth=2;" parent="1" source="qlOuwwVBCWCUI03agFLa-43" target="Gb6LevgNshtwQaWvTbLj-1" edge="1">
          <mxGeometry width="50" height="50" relative="1" as="geometry">
            <mxPoint x="361" y="518" as="sourcePoint" />
            <mxPoint x="411" y="468" as="targetPoint" />
          </mxGeometry>
        </mxCell>
        <mxCell id="Gb6LevgNshtwQaWvTbLj-3" value="" style="endArrow=none;html=1;rounded=0;strokeWidth=2;" parent="1" source="qlOuwwVBCWCUI03agFLa-48" target="DzXn7Jo2ncsvV8um2Ctm-64" edge="1">
          <mxGeometry width="50" height="50" relative="1" as="geometry">
            <mxPoint x="2108.25" y="525.5" as="sourcePoint" />
            <mxPoint x="2158.25" y="475.5" as="targetPoint" />
          </mxGeometry>
        </mxCell>
        <mxCell id="Gb6LevgNshtwQaWvTbLj-4" value="R&lt;sub&gt;x&lt;/sub&gt;(90º)" style="ellipse;whiteSpace=wrap;html=1;fillColor=none;align=center;" parent="1" vertex="1">
          <mxGeometry x="169" y="765" width="181" height="52" as="geometry" />
        </mxCell>
        <mxCell id="Gb6LevgNshtwQaWvTbLj-5" value="" style="endArrow=none;html=1;rounded=0;strokeWidth=2;" parent="1" source="Q5FcKZNCAvIhdIwWGUe6-18" target="Gb6LevgNshtwQaWvTbLj-4" edge="1">
          <mxGeometry width="50" height="50" relative="1" as="geometry">
            <mxPoint x="70" y="823" as="sourcePoint" />
            <mxPoint x="120" y="773" as="targetPoint" />
          </mxGeometry>
        </mxCell>
        <mxCell id="Gb6LevgNshtwQaWvTbLj-6" value="R&lt;sub&gt;x&lt;/sub&gt;(90º)" style="ellipse;whiteSpace=wrap;html=1;fillColor=none;align=center;" parent="1" vertex="1">
          <mxGeometry x="503.5" y="756" width="181" height="52" as="geometry" />
        </mxCell>
        <mxCell id="Gb6LevgNshtwQaWvTbLj-7" value="" style="endArrow=none;html=1;rounded=0;strokeWidth=2;" parent="1" source="Q5FcKZNCAvIhdIwWGUe6-24" target="Gb6LevgNshtwQaWvTbLj-6" edge="1">
          <mxGeometry width="50" height="50" relative="1" as="geometry">
            <mxPoint x="339" y="743" as="sourcePoint" />
            <mxPoint x="389" y="693" as="targetPoint" />
          </mxGeometry>
        </mxCell>
        <mxCell id="Gb6LevgNshtwQaWvTbLj-8" value="" style="endArrow=none;html=1;rounded=0;strokeWidth=2;" parent="1" source="Gb6LevgNshtwQaWvTbLj-6" target="Q5FcKZNCAvIhdIwWGUe6-25" edge="1">
          <mxGeometry width="50" height="50" relative="1" as="geometry">
            <mxPoint x="339" y="743" as="sourcePoint" />
            <mxPoint x="389" y="693" as="targetPoint" />
          </mxGeometry>
        </mxCell>
        <mxCell id="Gb6LevgNshtwQaWvTbLj-10" value="Pé" style="text;html=1;align=center;verticalAlign=middle;resizable=0;points=[];autosize=1;strokeColor=none;fillColor=none;" parent="1" vertex="1">
          <mxGeometry x="-492" y="821" width="33" height="26" as="geometry" />
        </mxCell>
        <mxCell id="Gb6LevgNshtwQaWvTbLj-12" value="Coxa&lt;br&gt;" style="text;html=1;align=center;verticalAlign=middle;resizable=0;points=[];autosize=1;strokeColor=none;fillColor=none;" parent="1" vertex="1">
          <mxGeometry x="-233" y="655" width="46" height="26" as="geometry" />
        </mxCell>
        <mxCell id="Gb6LevgNshtwQaWvTbLj-14" value="Perna" style="text;html=1;align=center;verticalAlign=middle;resizable=0;points=[];autosize=1;strokeColor=none;fillColor=none;" parent="1" vertex="1">
          <mxGeometry x="20" y="653" width="50" height="26" as="geometry" />
        </mxCell>
        <mxCell id="Gb6LevgNshtwQaWvTbLj-16" value="Roda Superior" style="text;html=1;align=center;verticalAlign=middle;resizable=0;points=[];autosize=1;strokeColor=none;fillColor=none;" parent="1" vertex="1">
          <mxGeometry x="297" y="655" width="95" height="26" as="geometry" />
        </mxCell>
        <mxCell id="Gb6LevgNshtwQaWvTbLj-18" value="Roda Inferior" style="text;html=1;align=center;verticalAlign=middle;resizable=0;points=[];autosize=1;strokeColor=none;fillColor=none;" parent="1" vertex="1">
          <mxGeometry x="643" y="655" width="87" height="26" as="geometry" />
        </mxCell>
        <mxCell id="Gb6LevgNshtwQaWvTbLj-20" value="Roda (cintura)&lt;br&gt;" style="text;html=1;align=center;verticalAlign=middle;resizable=0;points=[];autosize=1;strokeColor=none;fillColor=none;" parent="1" vertex="1">
          <mxGeometry x="190" y="284" width="94" height="26" as="geometry" />
        </mxCell>
        <mxCell id="Gb6LevgNshtwQaWvTbLj-22" value="Cintura&lt;br&gt;" style="text;html=1;align=center;verticalAlign=middle;resizable=0;points=[];autosize=1;strokeColor=none;fillColor=none;" parent="1" vertex="1">
          <mxGeometry x="536" y="290" width="57" height="26" as="geometry" />
        </mxCell>
        <mxCell id="Gb6LevgNshtwQaWvTbLj-26" value="Torso&lt;br&gt;" style="text;html=1;align=center;verticalAlign=middle;resizable=0;points=[];autosize=1;strokeColor=none;fillColor=none;" parent="1" vertex="1">
          <mxGeometry x="1150" y="294" width="47" height="26" as="geometry" />
        </mxCell>
        <mxCell id="Gb6LevgNshtwQaWvTbLj-28" value="Cabeça&lt;br&gt;" style="text;html=1;align=center;verticalAlign=middle;resizable=0;points=[];autosize=1;strokeColor=none;fillColor=none;" parent="1" vertex="1">
          <mxGeometry x="1082" y="596" width="59" height="26" as="geometry" />
        </mxCell>
        <mxCell id="Gb6LevgNshtwQaWvTbLj-30" value="Olho&lt;br&gt;" style="text;html=1;align=center;verticalAlign=middle;resizable=0;points=[];autosize=1;strokeColor=none;fillColor=none;" parent="1" vertex="1">
          <mxGeometry x="1498" y="602.5" width="43" height="26" as="geometry" />
        </mxCell>
        <mxCell id="Gb6LevgNshtwQaWvTbLj-32" value="Antena&lt;br&gt;" style="text;html=1;align=center;verticalAlign=middle;resizable=0;points=[];autosize=1;strokeColor=none;fillColor=none;" parent="1" vertex="1">
          <mxGeometry x="1747" y="601" width="56" height="26" as="geometry" />
        </mxCell>
        <mxCell id="qlOuwwVBCWCUI03agFLa-50" value="S (l&lt;sub&gt;braço&lt;/sub&gt;, h&lt;sub&gt;braço&lt;/sub&gt;, l&lt;sub&gt;braço&lt;/sub&gt;)" style="ellipse;whiteSpace=wrap;html=1;fillColor=none;align=center;" parent="1" vertex="1">
          <mxGeometry x="1899.25" y="622" width="203.5" height="52" as="geometry" />
        </mxCell>
        <mxCell id="Gb6LevgNshtwQaWvTbLj-35" value="Braço" style="text;html=1;align=center;verticalAlign=middle;resizable=0;points=[];autosize=1;strokeColor=none;fillColor=none;" parent="1" vertex="1">
          <mxGeometry x="2045" y="581.5" width="49" height="26" as="geometry" />
        </mxCell>
        <mxCell id="Gb6LevgNshtwQaWvTbLj-37" value="Antebraço" style="text;html=1;align=center;verticalAlign=middle;resizable=0;points=[];autosize=1;strokeColor=none;fillColor=none;" parent="1" vertex="1">
          <mxGeometry x="2396" y="594" width="73" height="26" as="geometry" />
        </mxCell>
        <mxCell id="Gb6LevgNshtwQaWvTbLj-39" value="Tubo de Escape" style="text;html=1;align=center;verticalAlign=middle;resizable=0;points=[];autosize=1;strokeColor=none;fillColor=none;" parent="1" vertex="1">
          <mxGeometry x="2739" y="532" width="105" height="26" as="geometry" />
        </mxCell>
        <mxCell id="Gb6LevgNshtwQaWvTbLj-40" value="M&lt;sub&gt;perna&amp;nbsp;&lt;/sub&gt;=&amp;nbsp;T(r&lt;sub style=&quot;border-color: var(--border-color);&quot;&gt;roda&lt;/sub&gt;&lt;span style=&quot;&quot;&gt;/8, - c&lt;/span&gt;&lt;sub style=&quot;border-color: var(--border-color);&quot;&gt;&lt;font style=&quot;border-color: var(--border-color);&quot;&gt;torso&lt;/font&gt;&lt;/sub&gt;&lt;span style=&quot;&quot;&gt;/2 - h&lt;/span&gt;&lt;sub style=&quot;border-color: var(--border-color);&quot;&gt;abdomen&lt;/sub&gt;&lt;span style=&quot;&quot;&gt;&amp;nbsp;+ h&lt;/span&gt;&lt;sub style=&quot;border-color: var(--border-color);&quot;&gt;cintura&lt;/sub&gt;&lt;span style=&quot;&quot;&gt;/2, - l&lt;/span&gt;&lt;sub style=&quot;border-color: var(--border-color);&quot;&gt;abdomen&lt;/sub&gt;&lt;span style=&quot;&quot;&gt;/2 + l&lt;/span&gt;&lt;sub style=&quot;border-color: var(--border-color);&quot;&gt;coxa&lt;/sub&gt;&lt;span style=&quot;&quot;&gt;/2) .&amp;nbsp;&lt;/span&gt;R&lt;sub style=&quot;border-color: var(--border-color);&quot;&gt;z&lt;/sub&gt;&lt;span style=&quot;&quot;&gt;(θ&lt;/span&gt;&lt;sub style=&quot;border-color: var(--border-color);&quot;&gt;2&lt;/sub&gt;&lt;span style=&quot;&quot;&gt;)&lt;/span&gt;" style="text;html=1;align=center;verticalAlign=middle;resizable=0;points=[];autosize=1;strokeColor=none;fillColor=none;" parent="1" vertex="1">
          <mxGeometry x="-565.25" y="464" width="447" height="29" as="geometry" />
        </mxCell>
        <mxCell id="Gb6LevgNshtwQaWvTbLj-41" value="M&lt;sub&gt;pé&lt;/sub&gt;&amp;nbsp;= M&lt;sub&gt;perna&lt;/sub&gt;&amp;nbsp;. T(0, - h&lt;sub style=&quot;border-color: var(--border-color);&quot;&gt;cintura&lt;/sub&gt;&lt;span style=&quot;&quot;&gt;/2 - h&lt;/span&gt;&lt;sub style=&quot;border-color: var(--border-color);&quot;&gt;coxa&lt;/sub&gt;&lt;span style=&quot;&quot;&gt;&amp;nbsp;- h&lt;/span&gt;&lt;sub style=&quot;border-color: var(--border-color);&quot;&gt;perna&lt;/sub&gt;&lt;span style=&quot;&quot;&gt;, - l&lt;/span&gt;&lt;sub style=&quot;border-color: var(--border-color);&quot;&gt;perna&lt;/sub&gt;&lt;span style=&quot;&quot;&gt;/2 + h&lt;/span&gt;&lt;sub style=&quot;border-color: var(--border-color);&quot;&gt;roda&lt;/sub&gt;&lt;span style=&quot;&quot;&gt;/2) .&amp;nbsp;&lt;/span&gt;R&lt;sub&gt;z&lt;/sub&gt; (θ&lt;sub style=&quot;border-color: var(--border-color);&quot;&gt;1&lt;/sub&gt;&lt;span style=&quot;&quot;&gt;)&lt;/span&gt;" style="text;html=1;align=center;verticalAlign=middle;resizable=0;points=[];autosize=1;strokeColor=none;fillColor=none;" parent="1" vertex="1">
          <mxGeometry x="-982.75" y="765" width="412" height="29" as="geometry" />
        </mxCell>
        <mxCell id="Gb6LevgNshtwQaWvTbLj-42" value="M&lt;sub&gt;cabeça&lt;/sub&gt;&amp;nbsp;=&amp;nbsp;T(0, c&lt;sub style=&quot;border-color: var(--border-color);&quot;&gt;&lt;font style=&quot;border-color: var(--border-color);&quot;&gt;torso&lt;/font&gt;&lt;/sub&gt;&lt;span style=&quot;&quot;&gt;/2, 0) .&amp;nbsp;&lt;/span&gt;R&lt;sub style=&quot;border-color: var(--border-color);&quot;&gt;z&lt;/sub&gt;&lt;span style=&quot;&quot;&gt;(θ&lt;/span&gt;&lt;sub style=&quot;border-color: var(--border-color);&quot;&gt;3&lt;/sub&gt;&lt;span style=&quot;&quot;&gt;)&lt;/span&gt;" style="text;html=1;align=center;verticalAlign=middle;resizable=0;points=[];autosize=1;strokeColor=none;fillColor=none;" parent="1" vertex="1">
          <mxGeometry x="1448" y="517.5" width="198" height="29" as="geometry" />
        </mxCell>
        <mxCell id="Gb6LevgNshtwQaWvTbLj-43" value="M&lt;sub&gt;braço &lt;/sub&gt;= T(- c&lt;sub style=&quot;border-color: var(--border-color);&quot;&gt;torso&lt;/sub&gt;&lt;span style=&quot;&quot;&gt;/2 + c&lt;/span&gt;&lt;sub style=&quot;border-color: var(--border-color);&quot;&gt;braço&lt;/sub&gt;&lt;span style=&quot;&quot;&gt;/2, 0, - l&lt;/span&gt;&lt;sub style=&quot;border-color: var(--border-color);&quot;&gt;torso&lt;/sub&gt;&lt;span style=&quot;&quot;&gt;/2&amp;nbsp;- l&lt;/span&gt;&lt;sub style=&quot;border-color: var(--border-color);&quot;&gt;braço&lt;/sub&gt;/2 +&lt;span style=&quot;&quot;&gt;ρ&lt;/span&gt;&lt;sub style=&quot;border-color: var(--border-color);&quot;&gt;1&lt;/sub&gt;&lt;span style=&quot;&quot;&gt;)&lt;/span&gt;" style="text;html=1;align=center;verticalAlign=middle;resizable=0;points=[];autosize=1;strokeColor=none;fillColor=none;" parent="1" vertex="1">
          <mxGeometry x="2014.63" y="493" width="315" height="29" as="geometry" />
        </mxCell>
      </root>
    </mxGraphModel>
  </diagram>
</mxfile>
